<svg width="32" height="32" viewBox="0 0 32 32" fill="none" xmlns="http://www.w3.org/2000/svg">
<path d="M7.04006 2.56006C4.57256 2.56006 2.56006 4.57256 2.56006 7.04006V24.9601C2.56006 27.4276 4.57256 29.4401 7.04006 29.4401H24.9601C27.4276 29.4401 29.4401 27.4276 29.4401 24.9601V7.04006C29.4401 4.57256 27.4276 2.56006 24.9601 2.56006H7.04006ZM7.04006 3.84006H24.9601C26.7351 3.84006 28.1601 5.26506 28.1601 7.04006V24.9601C28.1601 26.7351 26.7351 28.1601 24.9601 28.1601H7.04006C5.26506 28.1601 3.84006 26.7351 3.84006 24.9601V7.04006C3.84006 5.26506 5.26506 3.84006 7.04006 3.84006ZM23.1901 10.1326L14.6651 20.1951L9.46006 15.3401L8.58756 16.2776L14.7726 22.0476L24.1701 10.9601L23.1901 10.1326Z" fill="black"/>
</svg>
