<svg width="18" height="19" viewBox="0 0 18 19" fill="none" xmlns="http://www.w3.org/2000/svg">
<g clip-path="url(#clip0_419_907)">
<path d="M8.99875 1.66003C4.4301 1.66003 0.71875 5.37138 0.71875 9.94003C0.71875 14.5087 4.4301 18.22 8.99875 18.22C13.5674 18.22 17.2787 14.5087 17.2787 9.94003C17.2787 5.37138 13.5674 1.66003 8.99875 1.66003ZM8.99875 2.38003C13.1783 2.38003 16.5587 5.7605 16.5587 9.94003C16.5587 14.1196 13.1783 17.5 8.99875 17.5C4.81921 17.5 1.43875 14.1196 1.43875 9.94003C1.43875 5.7605 4.81921 2.38003 8.99875 2.38003ZM8.99312 3.45511C8.89777 3.4566 8.8069 3.49586 8.74046 3.56428C8.67402 3.6327 8.63744 3.72468 8.63875 3.82003V8.92261C8.42832 8.99701 8.2461 9.13478 8.11717 9.31698C7.98823 9.49917 7.91892 9.71683 7.91875 9.94003C7.91908 10.1009 7.95535 10.2597 8.02492 10.4048L5.86422 12.5655C5.82967 12.5987 5.80208 12.6384 5.78308 12.6824C5.76408 12.7263 5.75404 12.7737 5.75355 12.8216C5.75306 12.8694 5.76214 12.917 5.78024 12.9613C5.79835 13.0056 5.82512 13.0459 5.85898 13.0798C5.89285 13.1137 5.93314 13.1404 5.97748 13.1585C6.02183 13.1766 6.06934 13.1857 6.11723 13.1852C6.16513 13.1847 6.21244 13.1747 6.25641 13.1557C6.30038 13.1367 6.34011 13.1091 6.37328 13.0746L8.53398 10.9139C8.67906 10.9834 8.83785 11.0197 8.99875 11.02C9.28518 11.02 9.55989 10.9062 9.76243 10.7037C9.96496 10.5012 10.0787 10.2265 10.0787 9.94003C10.0784 9.71695 10.0091 9.49945 9.88013 9.31739C9.75121 9.13534 9.56907 8.99767 9.35875 8.92332V3.82003C9.35941 3.77187 9.3504 3.72406 9.33225 3.67944C9.3141 3.63483 9.28718 3.5943 9.25309 3.56028C9.21899 3.52625 9.17842 3.49941 9.13377 3.48134C9.08911 3.46328 9.04129 3.45436 8.99312 3.45511Z" fill="#151515"/>
</g>
<defs>
<clipPath id="clip0_419_907">
<rect width="18" height="18" fill="white" transform="translate(0 0.940033)"/>
</clipPath>
</defs>
</svg>
