<svg width="24" height="24" viewBox="0 0 24 24" fill="none" xmlns="http://www.w3.org/2000/svg">
<g clip-path="url(#clip0_419_3137)">
<path d="M12.0009 0.960007C5.9094 0.960007 0.960938 5.90847 0.960938 12C0.960938 18.0915 5.9094 23.04 12.0009 23.04C18.0925 23.04 23.0409 18.0915 23.0409 12C23.0409 5.90847 18.0925 0.960007 12.0009 0.960007ZM12.0009 1.92001C17.5737 1.92001 22.0809 6.42729 22.0809 12C22.0809 17.5727 17.5737 22.08 12.0009 22.08C6.42822 22.08 1.92094 17.5727 1.92094 12C1.92094 6.42729 6.42822 1.92001 12.0009 1.92001ZM17.7797 5.27532C17.7099 5.27331 17.6406 5.28652 17.5765 5.31405C17.5124 5.34157 17.455 5.38274 17.4084 5.43469L12.5691 10.6772C12.3896 10.6 12.1963 10.5601 12.0009 10.56C11.619 10.56 11.2528 10.7117 10.9827 10.9818C10.7127 11.2518 10.5609 11.6181 10.5609 12C10.5609 12.3819 10.7127 12.7482 10.9827 13.0182C11.2528 13.2883 11.619 13.44 12.0009 13.44C12.0813 13.4402 12.1616 13.4336 12.2409 13.4203L13.9809 16.5534C14.0116 16.6086 14.0528 16.6572 14.1022 16.6964C14.1517 16.7357 14.2083 16.7648 14.269 16.7821C14.3297 16.7994 14.3932 16.8046 14.4559 16.7974C14.5186 16.7902 14.5792 16.7707 14.6344 16.7401C14.6896 16.7094 14.7381 16.6682 14.7774 16.6187C14.8166 16.5693 14.8457 16.5126 14.863 16.452C14.8804 16.3913 14.8855 16.3278 14.8783 16.2651C14.8711 16.2024 14.8516 16.1417 14.8209 16.0866L13.0791 12.9525C13.3117 12.6897 13.4404 12.351 13.4409 12C13.4408 11.7657 13.3835 11.535 13.2741 11.3278L18.1134 6.08532C18.1771 6.01811 18.22 5.93391 18.2369 5.84288C18.2539 5.75185 18.2441 5.65787 18.2088 5.57226C18.1735 5.48665 18.1143 5.41307 18.0381 5.36038C17.962 5.3077 17.8722 5.27816 17.7797 5.27532Z" fill="white"/>
</g>
<defs>
<clipPath id="clip0_419_3137">
<rect width="24" height="24" fill="white"/>
</clipPath>
</defs>
</svg>
