<svg width="17" height="16" viewBox="0 0 17 16" fill="none" xmlns="http://www.w3.org/2000/svg">
<path d="M8.50496 11.52C8.58871 11.5188 8.66746 11.485 8.72621 11.4263L15.1262 5.02625C15.21 4.94625 15.2437 4.82625 15.2137 4.715C15.185 4.6025 15.0975 4.515 14.985 4.48625C14.8737 4.45625 14.7537 4.49 14.6737 4.57375L8.49996 10.7475L2.32621 4.57375C2.24621 4.49 2.12621 4.45625 2.01496 4.48625C1.90246 4.515 1.81496 4.6025 1.78621 4.715C1.75621 4.82625 1.78996 4.94625 1.87371 5.02625L8.27371 11.4263C8.33496 11.4875 8.41871 11.5213 8.50496 11.52Z" fill="#3442BF"/>
</svg>
