<svg width="24" height="24" viewBox="0 0 24 24" fill="none" xmlns="http://www.w3.org/2000/svg">
<g clip-path="url(#clip0_401_4683)">
<path d="M12 0.47998C7.53187 0.47998 3.8475 3.88311 3.405 8.23498C2.96625 8.37748 2.6175 8.72623 2.475 9.16498C1.79063 9.30186 1.19625 9.77061 0.78 10.395C0.283125 11.1394 0 12.12 0 13.2C0 14.28 0.283125 15.2606 0.78 16.005C1.19625 16.6294 1.79063 17.0981 2.475 17.235C2.6625 17.8125 3.2025 18.24 3.84 18.24C4.62937 18.24 5.28 17.5894 5.28 16.8V9.59998C5.28 9.00373 4.90312 8.49748 4.38 8.27998C4.8 4.43248 8.04 1.43998 12 1.43998C15.96 1.43998 19.2 4.43248 19.62 8.27998C19.0969 8.49748 18.72 9.00373 18.72 9.59998V16.8C18.72 17.4131 19.1194 17.9287 19.665 18.135C19.5994 19.0519 19.2881 19.7419 18.795 20.235C18.2381 20.7919 17.4244 21.12 16.32 21.12H14.79C14.5894 20.565 14.0606 20.16 13.44 20.16H11.04C10.2506 20.16 9.6 20.8106 9.6 21.6C9.6 22.3894 10.2506 23.04 11.04 23.04H13.44C14.0606 23.04 14.5894 22.635 14.79 22.08H16.32C17.6156 22.08 18.7219 21.6881 19.485 20.925C20.1712 20.2387 20.5537 19.2787 20.625 18.15C21.0487 18.0019 21.3862 17.6625 21.525 17.235C22.2094 17.0981 22.8037 16.6294 23.22 16.005C23.7169 15.2606 24 14.28 24 13.2C24 12.12 23.7169 11.1394 23.22 10.395C22.8037 9.77061 22.2094 9.30186 21.525 9.16498C21.3825 8.72623 21.0338 8.37748 20.595 8.23498C20.1525 3.88311 16.4681 0.47998 12 0.47998ZM3.84 9.11998C4.11 9.11998 4.32 9.32998 4.32 9.59998V16.8C4.32 17.07 4.11 17.28 3.84 17.28C3.57 17.28 3.36 17.07 3.36 16.8V9.59998C3.36 9.32998 3.57 9.11998 3.84 9.11998ZM20.16 9.11998C20.43 9.11998 20.64 9.32998 20.64 9.59998V16.8C20.64 17.07 20.43 17.28 20.16 17.28C19.89 17.28 19.68 17.07 19.68 16.8V9.59998C19.68 9.32998 19.89 9.11998 20.16 9.11998ZM2.4 10.185V16.215C2.10187 16.0875 1.81875 15.8456 1.575 15.48C1.20375 14.9231 0.96 14.1075 0.96 13.2C0.96 12.2925 1.20375 11.4769 1.575 10.92C1.81875 10.5544 2.10187 10.3125 2.4 10.185ZM21.6 10.185C21.8981 10.3125 22.1812 10.5544 22.425 10.92C22.7962 11.4769 23.04 12.2925 23.04 13.2C23.04 14.1075 22.7962 14.9231 22.425 15.48C22.1812 15.8456 21.8981 16.0875 21.6 16.215V10.185ZM11.04 21.12H13.44C13.71 21.12 13.92 21.33 13.92 21.6C13.92 21.87 13.71 22.08 13.44 22.08H11.04C10.77 22.08 10.56 21.87 10.56 21.6C10.56 21.33 10.77 21.12 11.04 21.12Z" fill="white"/>
</g>
<defs>
<clipPath id="clip0_401_4683">
<rect width="24" height="24" fill="white"/>
</clipPath>
</defs>
</svg>
