<svg width="32" height="32" viewBox="0 0 32 32" fill="none" xmlns="http://www.w3.org/2000/svg">
<path d="M16.0087 0.673639C15.8519 0.671585 15.6998 0.727186 15.5812 0.829889L0.86123 13.5961C0.795015 13.6503 0.740332 13.7172 0.700414 13.7929C0.660495 13.8685 0.63615 13.9514 0.628819 14.0367C0.621488 14.1219 0.631319 14.2078 0.657731 14.2891C0.684143 14.3705 0.7266 14.4458 0.782592 14.5104C0.838584 14.5751 0.906976 14.6279 0.983724 14.6657C1.06047 14.7035 1.14402 14.7256 1.22943 14.7305C1.31484 14.7355 1.40037 14.7233 1.48098 14.6946C1.56159 14.6659 1.63563 14.6214 1.69873 14.5636L3.19998 13.2611V29.4399C3.2 29.6096 3.26743 29.7724 3.38745 29.8924C3.50747 30.0124 3.67025 30.0799 3.83998 30.0799H28.16C28.3297 30.0799 28.4925 30.0124 28.6125 29.8924C28.7325 29.7724 28.8 29.6096 28.8 29.4399V13.2624L30.3012 14.5636C30.3643 14.6214 30.4384 14.6659 30.519 14.6946C30.5996 14.7233 30.6851 14.7355 30.7705 14.7305C30.8559 14.7256 30.9395 14.7035 31.0162 14.6657C31.093 14.6279 31.1614 14.5751 31.2174 14.5104C31.2734 14.4458 31.3158 14.3705 31.3422 14.2891C31.3686 14.2078 31.3785 14.1219 31.3711 14.0367C31.3638 13.9514 31.3395 13.8685 31.2995 13.7929C31.2596 13.7172 31.2049 13.6503 31.1387 13.5961L25.6 8.79239C25.6 8.78855 25.6 8.78759 25.6 8.78364C25.5999 8.65435 25.6 8.46123 25.6 8.22489C25.6 7.7522 25.5999 7.10706 25.6 6.45739C25.6001 5.15805 25.6 3.83989 25.6 3.83989C25.6 3.67016 25.5325 3.50738 25.4125 3.38736C25.2925 3.26734 25.1297 3.19991 24.96 3.19989H22.4C22.3158 3.1999 22.2325 3.2165 22.1548 3.24874C22.0771 3.28099 22.0065 3.32824 21.947 3.3878C21.8876 3.44736 21.8404 3.51806 21.8084 3.59585C21.7763 3.67364 21.7598 3.75699 21.76 3.84114C21.76 3.84114 21.7608 4.56029 21.7612 5.27989C21.7613 5.34675 21.7612 5.39735 21.7612 5.46364L16.4187 0.829889C16.3047 0.731127 16.1595 0.67579 16.0087 0.673639ZM16 2.16114L21.4925 6.92364C21.3954 7.05308 21.351 7.21446 21.3681 7.37532C21.3853 7.53618 21.4627 7.6846 21.5848 7.79071C21.7069 7.89682 21.8646 7.95276 22.0263 7.94728C22.188 7.94179 22.3416 7.87529 22.4562 7.76114L27.5287 12.1599H4.46998L16 2.16114ZM23.04 4.47989H24.32C24.3199 4.90666 24.32 5.47571 24.32 6.45739C24.32 6.90767 24.32 7.29243 24.32 7.68239L23.0412 6.57364C23.0414 6.49525 23.0412 6.39535 23.0412 6.26989C23.0414 5.99935 23.0414 5.63868 23.0412 5.27864C23.041 4.87922 23.0402 4.75634 23.04 4.47989ZM4.47998 13.4399H27.52V28.7999H4.47998V13.4399ZM8.31998 16.6399C8.15025 16.6399 7.98747 16.7073 7.86745 16.8274C7.74743 16.9474 7.68 17.1102 7.67998 17.2799V24.9599C7.68 25.1296 7.74743 25.2924 7.86745 25.4124C7.98747 25.5324 8.15025 25.5999 8.31998 25.5999H13.44C13.6097 25.5999 13.7725 25.5324 13.8925 25.4124C14.0125 25.2924 14.08 25.1296 14.08 24.9599V17.2799C14.08 17.1102 14.0125 16.9474 13.8925 16.8274C13.7725 16.7073 13.6097 16.6399 13.44 16.6399H8.31998ZM18.56 16.6399C18.3902 16.6399 18.2275 16.7073 18.1075 16.8274C17.9874 16.9474 17.92 17.1102 17.92 17.2799V24.9599C17.92 25.1296 17.9874 25.2924 18.1075 25.4124C18.2275 25.5324 18.3902 25.5999 18.56 25.5999H23.68C23.8497 25.5999 24.0125 25.5324 24.1325 25.4124C24.2525 25.2924 24.32 25.1296 24.32 24.9599V17.2799C24.32 17.1102 24.2525 16.9474 24.1325 16.8274C24.0125 16.7073 23.8497 16.6399 23.68 16.6399H18.56ZM8.95998 17.9199H12.8V24.3199H8.95998V17.9199ZM19.2 17.9199H23.04V24.3199H19.2V17.9199Z" fill="#3442BF"/>
</svg>
