<svg width="24" height="24" viewBox="0 0 24 24" fill="none" xmlns="http://www.w3.org/2000/svg">
<path d="M12.0003 0.480011C7.75719 0.480011 4.32031 3.91689 4.32031 8.16001C4.32031 11.6681 6.17281 15.4388 7.99531 18.36C9.81781 21.2813 11.6403 23.355 11.6403 23.355C11.7322 23.4581 11.8634 23.5181 12.0003 23.5181C12.1372 23.5181 12.2684 23.4581 12.3603 23.355C12.3603 23.355 14.1847 21.2381 16.0053 18.3C17.8259 15.3619 19.6803 11.6006 19.6803 8.16001C19.6803 3.91689 16.2434 0.480011 12.0003 0.480011ZM12.0003 1.44001C15.7259 1.44001 18.7203 4.43439 18.7203 8.16001C18.7203 11.2481 16.9747 14.9194 15.1953 17.79C13.7047 20.1956 12.4428 21.7444 12.0003 22.275C11.5541 21.7481 10.2922 20.2331 8.80531 17.85C7.02781 15 5.28031 11.3231 5.28031 8.16001C5.28031 4.43439 8.27469 1.44001 12.0003 1.44001ZM12.0003 5.28001C10.1497 5.28001 8.64031 6.78939 8.64031 8.64001C8.64031 10.4906 10.1497 12 12.0003 12C13.8509 12 15.3603 10.4906 15.3603 8.64001C15.3603 6.78939 13.8509 5.28001 12.0003 5.28001ZM12.0003 6.24001C13.3316 6.24001 14.4003 7.30876 14.4003 8.64001C14.4003 9.97126 13.3316 11.04 12.0003 11.04C10.6691 11.04 9.60031 9.97126 9.60031 8.64001C9.60031 7.30876 10.6691 6.24001 12.0003 6.24001Z" fill="white"/>
</svg>
