<svg width="13" height="12" viewBox="0 0 13 12" fill="none" xmlns="http://www.w3.org/2000/svg">
<path d="M1.93945 0V12H11.0595V3.50063L7.55883 0H1.93945ZM2.41945 0.48H7.21945V3.84H10.5795V11.52H2.41945V0.48ZM7.69945 0.819375L10.2401 3.36H7.69945V0.819375ZM4.65539 5.87812C4.4632 5.87812 4.28414 5.89875 4.14539 5.93156V8.64H4.57758V7.56656C4.61883 7.57125 4.65539 7.57125 4.70039 7.57125C4.93289 7.57125 5.1982 7.4775 5.36133 7.28531C5.48789 7.13812 5.5657 6.95062 5.5657 6.67406C5.5657 6.43687 5.49164 6.225 5.34445 6.08625C5.18133 5.93156 4.94508 5.87812 4.65539 5.87812ZM6.39352 5.87812C6.20602 5.87812 6.0307 5.89875 5.90414 5.93156V8.63156C6.00258 8.6475 6.15352 8.65969 6.30445 8.65969C6.65883 8.65969 6.92883 8.57063 7.11164 8.38219C7.31977 8.17875 7.46695 7.8075 7.46695 7.21594C7.46695 6.66469 7.3282 6.30656 7.1032 6.10594C6.94008 5.955 6.71133 5.87812 6.39352 5.87812ZM7.82133 5.89031V8.64H8.2582V7.45312H8.90695V7.09031H8.2582V6.27H8.95195V5.89031H7.82133ZM6.46289 6.22875C6.84258 6.22875 7.01695 6.58781 7.01695 7.21219C7.01695 8.04844 6.74414 8.30156 6.44227 8.30156C6.41414 8.30156 6.37289 8.30156 6.33633 8.29313V6.24094C6.37289 6.23344 6.41789 6.22875 6.46289 6.22875ZM4.72852 6.2325C5.02195 6.2325 5.12789 6.44906 5.12789 6.70594C5.12789 7.02 4.96945 7.21594 4.68445 7.21594C4.63945 7.21594 4.61039 7.21594 4.57758 7.2075V6.25312C4.61414 6.24094 4.66758 6.2325 4.72852 6.2325Z" fill="white"/>
</svg>
