<svg width="25" height="24" viewBox="0 0 25 24" fill="none" xmlns="http://www.w3.org/2000/svg">
<path d="M14.6585 6.2849C14.4785 6.31678 14.3341 6.44803 14.2835 6.6224C14.2329 6.79865 14.2854 6.98615 14.4185 7.1099L18.8285 11.5199H4.65348C4.63848 11.5199 4.62348 11.5199 4.60848 11.5199C4.34411 11.533 4.13786 11.758 4.15098 12.0224C4.16411 12.2868 4.38911 12.493 4.65348 12.4799H18.8285L14.4185 16.8899C14.276 17.0062 14.2104 17.1918 14.2516 17.3718C14.2929 17.5499 14.4335 17.6905 14.6116 17.7318C14.7916 17.773 14.9772 17.7074 15.0935 17.5649L20.3285 12.3449L20.6585 11.9999L20.3285 11.6549L15.0935 6.4349C14.9941 6.32803 14.8497 6.27365 14.7035 6.2849C14.6885 6.2849 14.6735 6.2849 14.6585 6.2849Z" fill="#151515"/>
</svg>
