<svg width="24" height="24" viewBox="0 0 24 24" fill="none" xmlns="http://www.w3.org/2000/svg">
<path d="M2.87992 1.92C2.35525 1.92 1.91992 2.35533 1.91992 2.88V6.72C1.91992 7.24467 2.35525 7.68 2.87992 7.68H6.71992C7.24459 7.68 7.67992 7.24467 7.67992 6.72V2.88C7.67992 2.35533 7.24459 1.92 6.71992 1.92H2.87992ZM10.0799 1.92C9.55525 1.92 9.11992 2.35533 9.11992 2.88V6.72C9.11992 7.24467 9.55525 7.68 10.0799 7.68H13.9199C14.4446 7.68 14.8799 7.24467 14.8799 6.72V2.88C14.8799 2.35533 14.4446 1.92 13.9199 1.92H10.0799ZM17.2799 1.92C16.7553 1.92 16.3199 2.35533 16.3199 2.88V6.72C16.3199 7.24467 16.7553 7.68 17.2799 7.68H21.1199C21.6446 7.68 22.0799 7.24467 22.0799 6.72V2.88C22.0799 2.35533 21.6446 1.92 21.1199 1.92H17.2799ZM2.87992 2.88H6.71992V6.72H2.87992V2.88ZM10.0799 2.88H13.9199V6.72H10.0799V2.88ZM17.2799 2.88H21.1199V6.72H17.2799V2.88ZM2.87992 9.12C2.35525 9.12 1.91992 9.55533 1.91992 10.08V13.92C1.91992 14.4447 2.35525 14.88 2.87992 14.88H6.71992C7.24459 14.88 7.67992 14.4447 7.67992 13.92V10.08C7.67992 9.55533 7.24459 9.12 6.71992 9.12H2.87992ZM10.0799 9.12C9.55525 9.12 9.11992 9.55533 9.11992 10.08V13.92C9.11992 14.4447 9.55525 14.88 10.0799 14.88H13.9199C14.4446 14.88 14.8799 14.4447 14.8799 13.92V10.08C14.8799 9.55533 14.4446 9.12 13.9199 9.12H10.0799ZM17.2799 9.12C16.7553 9.12 16.3199 9.55533 16.3199 10.08V13.92C16.3199 14.4447 16.7553 14.88 17.2799 14.88H21.1199C21.6446 14.88 22.0799 14.4447 22.0799 13.92V10.08C22.0799 9.55533 21.6446 9.12 21.1199 9.12H17.2799ZM2.87992 10.08H6.71992V13.92H2.87992V10.08ZM10.0799 10.08H13.9199V13.92H10.0799V10.08ZM17.2799 10.08H21.1199V13.92H17.2799V10.08ZM2.87992 16.32C2.35525 16.32 1.91992 16.7553 1.91992 17.28V21.12C1.91992 21.6447 2.35525 22.08 2.87992 22.08H6.71992C7.24459 22.08 7.67992 21.6447 7.67992 21.12V17.28C7.67992 16.7553 7.24459 16.32 6.71992 16.32H2.87992ZM10.0799 16.32C9.55525 16.32 9.11992 16.7553 9.11992 17.28V21.12C9.11992 21.6447 9.55525 22.08 10.0799 22.08H13.9199C14.4446 22.08 14.8799 21.6447 14.8799 21.12V17.28C14.8799 16.7553 14.4446 16.32 13.9199 16.32H10.0799ZM17.2799 16.32C16.7553 16.32 16.3199 16.7553 16.3199 17.28V21.12C16.3199 21.6447 16.7553 22.08 17.2799 22.08H21.1199C21.6446 22.08 22.0799 21.6447 22.0799 21.12V17.28C22.0799 16.7553 21.6446 16.32 21.1199 16.32H17.2799ZM2.87992 17.28H6.71992V21.12H2.87992V17.28ZM10.0799 17.28H13.9199V21.12H10.0799V17.28ZM17.2799 17.28H21.1199V21.12H17.2799V17.28Z" fill="white"/>
</svg>
