<svg width="17" height="16" viewBox="0 0 17 16" fill="none" xmlns="http://www.w3.org/2000/svg">
<g clip-path="url(#clip0_398_4639)">
<path d="M3.59735 15.5518C3.53335 15.5518 3.46935 15.5198 3.40535 15.4878C3.30935 15.4238 3.24535 15.2638 3.27735 15.1358L4.68535 9.88782L0.46135 6.46382C0.33335 6.39982 0.30135 6.23982 0.33335 6.11182C0.36535 5.98382 0.49335 5.88782 0.62135 5.88782L6.06135 5.59982L8.01335 0.511824C8.07735 0.415824 8.20535 0.319824 8.33335 0.319824C8.46135 0.319824 8.58935 0.415824 8.62135 0.511824L10.5733 5.59982L16.0133 5.88782C16.1413 5.88782 16.2694 5.98382 16.3013 6.11182C16.3333 6.23982 16.3013 6.36782 16.2053 6.46382L11.9813 9.88782L13.3893 15.1358C13.4213 15.2638 13.3893 15.3918 13.2613 15.4878C13.1653 15.5518 13.0053 15.5838 12.9093 15.4878L8.33335 12.5438L3.75735 15.4878C3.69335 15.5518 3.66135 15.5518 3.59735 15.5518Z" fill="#3442BF"/>
</g>
<defs>
<clipPath id="clip0_398_4639">
<rect width="16" height="16" fill="white" transform="translate(0.333344)"/>
</clipPath>
</defs>
</svg>
