<svg width="17" height="16" viewBox="0 0 17 16" fill="none" xmlns="http://www.w3.org/2000/svg">
<g clip-path="url(#clip0_398_4647)">
<path d="M3.59734 15.5518C3.53334 15.5518 3.46934 15.5198 3.40534 15.4878C3.30934 15.4238 3.24534 15.2638 3.27734 15.1358L4.68534 9.88782L0.461342 6.46382C0.333342 6.39982 0.301342 6.23982 0.333342 6.11182C0.365342 5.98382 0.493342 5.88782 0.621342 5.88782L6.06134 5.59982L8.01334 0.511824C8.07734 0.415824 8.20534 0.319824 8.33334 0.319824C8.46134 0.319824 8.58934 0.415824 8.62134 0.511824L10.5733 5.59982L16.0133 5.88782C16.1413 5.88782 16.2693 5.98382 16.3013 6.11182C16.3333 6.23982 16.3013 6.36782 16.2053 6.46382L11.9813 9.88782L13.3893 15.1358C13.4213 15.2638 13.3893 15.3918 13.2613 15.4878C13.1653 15.5518 13.0053 15.5838 12.9093 15.4878L8.33334 12.5438L3.75734 15.4878C3.69334 15.5518 3.66134 15.5518 3.59734 15.5518Z" fill="#E1E1E1"/>
</g>
<defs>
<clipPath id="clip0_398_4647">
<rect width="16" height="16" fill="white" transform="translate(0.333344)"/>
</clipPath>
</defs>
</svg>
