<svg width="24" height="24" viewBox="0 0 24 24" fill="none" xmlns="http://www.w3.org/2000/svg">
<g clip-path="url(#clip0_419_3158)">
<path d="M8.16003 0.960022C6.57566 0.960022 5.28004 2.25565 5.28004 3.84002C5.28004 4.79252 5.74879 5.64002 6.46503 6.16502C6.08066 6.35815 5.73004 6.60752 5.43004 6.91502C5.08129 6.79127 4.71004 6.72002 4.32003 6.72002C2.46941 6.72002 0.960035 8.2294 0.960035 10.08C0.960035 11.2556 1.56941 12.3 2.49004 12.9C1.02379 13.5938 3.52039e-05 15.0788 3.52039e-05 16.8V18.96C-0.0018398 19.1138 0.0712854 19.2581 0.195035 19.35C0.195035 19.35 0.53441 19.59 1.18504 19.785C1.83566 19.98 2.84066 20.16 4.32003 20.16C5.79941 20.16 6.80441 19.98 7.45504 19.785C7.53941 19.7606 7.60691 19.7363 7.68003 19.71V21.84C7.67816 21.9938 7.75129 22.1381 7.87503 22.23C7.87503 22.23 8.21441 22.47 8.86504 22.665C9.51566 22.86 10.5207 23.04 12 23.04C13.4794 23.04 14.4844 22.86 15.135 22.665C15.7857 22.47 16.125 22.23 16.125 22.23C16.2488 22.1381 16.3219 21.9938 16.32 21.84V19.71C16.3932 19.7363 16.4607 19.7606 16.545 19.785C17.1957 19.98 18.2007 20.16 19.68 20.16C21.1594 20.16 22.1644 19.98 22.815 19.785C23.4657 19.59 23.805 19.35 23.805 19.35C23.9288 19.2581 24.0019 19.1138 24 18.96V16.8C24 15.0788 22.9763 13.5938 21.51 12.9C22.4307 12.3 23.04 11.2556 23.04 10.08C23.04 8.2294 21.5307 6.72002 19.68 6.72002C19.2619 6.72002 18.8644 6.8044 18.495 6.94502C18.1932 6.62815 17.8369 6.36377 17.445 6.16502C18.1613 5.64002 18.63 4.79252 18.63 3.84002C18.63 2.25565 17.3344 0.960022 15.75 0.960022C14.1657 0.960022 12.87 2.25565 12.87 3.84002C12.87 4.79252 13.3388 5.64002 14.055 6.16502C12.9525 6.70877 12.1463 7.75502 11.955 9.01502C11.7638 7.75315 10.9594 6.7069 9.85503 6.16502C10.5713 5.64002 11.04 4.79252 11.04 3.84002C11.04 2.25565 9.74441 0.960022 8.16003 0.960022ZM8.16003 1.92002C9.22691 1.92002 10.08 2.77315 10.08 3.84002C10.08 4.9069 9.22691 5.76002 8.16003 5.76002C7.09316 5.76002 6.24004 4.9069 6.24004 3.84002C6.24004 2.77315 7.09316 1.92002 8.16003 1.92002ZM15.75 1.92002C16.8169 1.92002 17.67 2.77315 17.67 3.84002C17.67 4.9069 16.8169 5.76002 15.75 5.76002C14.6832 5.76002 13.83 4.9069 13.83 3.84002C13.83 2.77315 14.6832 1.92002 15.75 1.92002ZM8.16003 6.72002C9.77816 6.72002 11.04 7.9819 11.04 9.60002V9.75002C9.66003 10.1681 8.64003 11.4469 8.64003 12.96C8.64003 14.1356 9.24941 15.18 10.17 15.78C9.56816 16.065 9.05254 16.4831 8.64003 16.995V16.8C8.64003 15.0788 7.61629 13.5938 6.15003 12.9C7.07066 12.3 7.68003 11.2556 7.68003 10.08C7.68003 8.98502 7.14566 8.01002 6.33004 7.39502C6.82879 6.9694 7.44753 6.72002 8.16003 6.72002ZM15.75 6.72002C16.4832 6.72002 17.1207 6.9769 17.625 7.42502C16.8338 8.04002 16.32 9.00565 16.32 10.08C16.32 11.2556 16.9294 12.3 17.85 12.9C16.3838 13.5938 15.36 15.0788 15.36 16.8V16.995C14.9475 16.4831 14.4319 16.065 13.83 15.78C14.7507 15.18 15.36 14.1356 15.36 12.96C15.36 11.4131 14.2988 10.1063 12.87 9.72002V9.60002C12.87 7.9819 14.1319 6.72002 15.75 6.72002ZM4.32003 7.68002C4.69316 7.68002 5.04004 7.77002 5.35504 7.92002C6.16129 8.30627 6.72004 9.1219 6.72004 10.08C6.72004 11.4113 5.65129 12.48 4.32003 12.48C2.98879 12.48 1.92004 11.4113 1.92004 10.08C1.92004 8.74877 2.98879 7.68002 4.32003 7.68002ZM19.68 7.68002C21.0113 7.68002 22.08 8.74877 22.08 10.08C22.08 11.4113 21.0113 12.48 19.68 12.48C18.3488 12.48 17.28 11.4113 17.28 10.08C17.28 9.19315 17.7544 8.42627 18.465 8.01002C18.4688 8.00815 18.4763 8.0119 18.48 8.01002C18.5513 7.99502 18.6169 7.96502 18.675 7.92002C18.6919 7.91252 18.7032 7.89752 18.72 7.89002C18.7294 7.88627 18.7407 7.88065 18.75 7.87502C19.0369 7.75315 19.3482 7.68002 19.68 7.68002ZM12 10.56C13.3313 10.56 14.4 11.6288 14.4 12.96C14.4 14.2913 13.3313 15.36 12 15.36C10.6688 15.36 9.60003 14.2913 9.60003 12.96C9.60003 11.6288 10.6688 10.56 12 10.56ZM4.32003 13.44C6.17066 13.44 7.68003 14.9494 7.68003 16.8V18.645C7.60878 18.6881 7.58066 18.7369 7.18504 18.855C6.63566 19.02 5.72066 19.2 4.32003 19.2C2.91941 19.2 2.00441 19.02 1.45504 18.855C1.05941 18.7369 1.03129 18.6881 0.960035 18.645V16.8C0.960035 14.9494 2.46941 13.44 4.32003 13.44ZM19.68 13.44C21.5307 13.44 23.04 14.9494 23.04 16.8V18.645C22.9688 18.6881 22.9407 18.7369 22.545 18.855C21.9957 19.02 21.0807 19.2 19.68 19.2C18.2794 19.2 17.3644 19.02 16.815 18.855C16.4194 18.7369 16.3913 18.6881 16.32 18.645V16.8C16.32 14.9494 17.8294 13.44 19.68 13.44ZM12 16.32C13.8507 16.32 15.36 17.8294 15.36 19.68V21.525C15.2888 21.5681 15.2607 21.6169 14.865 21.735C14.3157 21.9 13.4007 22.08 12 22.08C10.5994 22.08 9.68441 21.9 9.13503 21.735C8.73941 21.6169 8.71128 21.5681 8.64003 21.525V19.68C8.64003 17.8294 10.1494 16.32 12 16.32Z" fill="white"/>
</g>
<defs>
<clipPath id="clip0_419_3158">
<rect width="24" height="24" fill="white"/>
</clipPath>
</defs>
</svg>
