<svg width="24" height="32" viewBox="0 0 24 32" fill="none" xmlns="http://www.w3.org/2000/svg">
<path d="M13.1478 0C9.7844 0 7.12814 0.992192 5.33794 2.82682C3.54774 4.66145 2.66606 7.28628 2.66606 10.3971C2.66606 11.4343 3.0494 13.2701 3.43689 14.7279C3.11061 14.7766 2.75491 14.8518 2.36268 14.9935C1.64958 15.2513 1.18024 15.8358 0.802779 16.4323C0.425318 17.0287 0.162143 17.6316 0.0814251 18.1797C-0.0264723 18.912 -0.0775566 19.8868 0.258508 20.957C0.439782 21.5345 0.688208 22.2968 1.09965 23.263C1.99445 25.3611 3.45745 27.0516 4.72335 28.2539C5.3563 28.8551 5.94096 29.3336 6.38611 29.6758C6.83127 30.018 7.20251 30.2743 7.17908 30.2565H7.18038V30.2578C7.4288 30.4457 9.36255 32 11.6036 32C13.7531 32 14.9757 30.7452 15.3002 30.444C15.6677 30.1029 15.8497 29.7146 15.9343 29.3646C17.6211 28.5464 18.9886 27.0825 19.9877 25.5794C20.9229 24.1724 21.4909 22.7936 21.6804 21.6823C22.1836 21.4404 23.6908 20.6184 23.9721 18.237C24.0693 17.4098 23.8257 16.7102 23.502 16.2174C23.3072 15.9209 23.1167 15.8103 22.9174 15.6406C23.3852 14.1538 23.9994 11.8574 23.9994 9.33333C23.9994 8.17327 23.759 6.58877 22.9747 5.20833C22.2396 3.91463 20.9122 2.85071 19.0293 2.71745C18.1761 1.41467 16.3241 0 13.1478 0ZM13.1478 1.33333C16.1449 1.33333 17.5757 2.72721 18.0801 3.65234C18.1375 3.75762 18.2222 3.84548 18.3253 3.90667C18.4284 3.96785 18.5462 4.00009 18.6661 4C20.2948 4 21.1957 4.77812 21.8145 5.86719C22.4333 6.95625 22.6661 8.3714 22.6661 9.33333C22.6661 11.8048 21.9978 14.2314 21.545 15.6185C21.4987 15.7604 21.5013 15.9138 21.5526 16.054C21.6038 16.1943 21.7006 16.3133 21.8275 16.3919C21.9424 16.4632 22.2013 16.6658 22.3874 16.9492C22.5736 17.2326 22.7066 17.5826 22.6478 18.082C22.3934 20.2304 20.8939 20.6549 20.8939 20.6549C20.7737 20.6962 20.6679 20.771 20.5887 20.8704C20.5096 20.9698 20.4605 21.0898 20.4473 21.2161C20.37 21.9527 19.803 23.448 18.877 24.8411C18.109 25.9965 17.0955 27.0973 15.972 27.8138C15.9568 27.7076 15.9308 27.5879 15.8692 27.4557C15.7081 27.1104 15.3743 26.8463 14.9109 26.651H14.9095C14.5161 26.4853 13.8444 26.2066 13.2455 25.957C12.946 25.8322 12.6652 25.7154 12.4486 25.6237C12.2342 25.533 12.051 25.4501 12.0671 25.4583L12.0632 25.457C11.7869 25.3179 11.2618 25.184 10.7845 25.4245C10.5451 25.5451 10.2888 25.6565 9.99809 25.9089C9.79305 26.0868 9.51344 26.2975 9.27934 26.5352L9.27804 26.5365C9.24547 26.5696 9.26803 26.552 9.24939 26.5677C8.85866 26.3352 7.69543 25.5979 6.76893 24.5456H6.76762C6.1443 23.8385 5.74193 23.1923 5.46945 22.6758C5.19696 22.1592 5.07685 21.8102 4.93559 21.5247C4.89047 21.4336 4.89971 21.4536 4.89783 21.4505C5.16049 21.2197 6.05402 20.4628 6.33273 20.2747C6.62677 20.0764 6.87569 19.7356 6.91476 19.3906C6.95383 19.0456 6.85241 18.8065 6.78195 18.6107C6.67143 18.3007 6.42611 17.7974 6.14913 17.2161C5.87184 16.6342 5.58853 16.054 5.48768 15.8503C5.31821 15.5079 5.27963 15.1802 4.86268 14.8854C4.46384 13.461 3.99939 11.1149 3.99939 10.3971C3.99939 7.53532 4.79206 5.29535 6.29236 3.75781C7.79266 2.22028 10.0426 1.33333 13.1478 1.33333ZM18.2976 6.40885C18.291 6.40963 18.2845 6.41049 18.278 6.41146C18.2754 6.41144 18.2728 6.41144 18.2702 6.41146C18.2611 6.41257 18.252 6.41387 18.2429 6.41536C18.2377 6.41617 18.2325 6.41704 18.2273 6.41797C18.2089 6.42068 18.1906 6.42415 18.1726 6.42839C18.1695 6.42923 18.1665 6.4301 18.1635 6.43099C18.0648 6.45581 17.9732 6.50285 17.8956 6.56853C17.8179 6.6342 17.7564 6.71676 17.7155 6.8099C17.706 6.8294 17.4372 7.39033 16.6635 8.02604C15.8764 8.67268 14.6296 9.33333 12.6661 9.33333C11.4161 9.33333 9.85975 9.34237 8.50981 9.83073C7.83484 10.0749 7.19851 10.4519 6.73247 11.0378C6.26642 11.6236 5.99939 12.4063 5.99939 13.3333C5.99815 13.4217 6.01447 13.5094 6.04741 13.5914C6.08035 13.6733 6.12926 13.748 6.19129 13.8109C6.25332 13.8738 6.32723 13.9237 6.40874 13.9578C6.49024 13.9919 6.57771 14.0095 6.66606 14.0095C6.75441 14.0095 6.84188 13.9919 6.92339 13.9578C7.00489 13.9237 7.0788 13.8738 7.14083 13.8109C7.20286 13.748 7.25177 13.6733 7.28471 13.5914C7.31766 13.5094 7.33398 13.4217 7.33273 13.3333C7.33273 12.649 7.50528 12.2097 7.77674 11.8685C8.04819 11.5272 8.4479 11.271 8.96294 11.0846C9.993 10.712 11.436 10.6667 12.6661 10.6667C14.9358 10.6667 16.5219 9.86897 17.5098 9.05729C17.8572 8.77185 18.0548 8.51173 18.2702 8.2526C18.8443 9.10366 19.9994 10.9733 19.9994 13.3333C19.9981 13.4217 20.0145 13.5094 20.0474 13.5914C20.0804 13.6733 20.1293 13.748 20.1913 13.8109C20.2533 13.8738 20.3272 13.9237 20.4087 13.9578C20.4902 13.9919 20.5777 14.0095 20.6661 14.0095C20.7544 14.0095 20.8419 13.9919 20.9234 13.9578C21.0049 13.9237 21.0788 13.8738 21.1408 13.8109C21.2029 13.748 21.2518 13.6733 21.2847 13.5914C21.3177 13.5094 21.334 13.4217 21.3327 13.3333C21.3327 9.86733 19.1466 7.0717 18.9577 6.83333C18.909 6.70828 18.8236 6.60086 18.7128 6.52513C18.6019 6.44939 18.4709 6.40887 18.3366 6.40885C18.3236 6.40847 18.3106 6.40847 18.2976 6.40885ZM4.06971 16.0052C4.07014 16.0386 4.15827 16.1679 4.29366 16.4414C4.38748 16.631 4.67213 17.2143 4.94601 17.7891C5.21988 18.3638 5.50841 19.0084 5.52674 19.0599V19.0612H5.52804C5.5686 19.1739 5.56464 19.1692 5.56971 19.1836C5.07224 19.5228 4.26516 20.2296 3.99549 20.4674L3.99419 20.4688C3.79208 20.6475 3.59449 20.9282 3.55538 21.2539C3.51628 21.5796 3.61476 21.8596 3.74158 22.1159C3.79499 22.2238 3.97741 22.7061 4.28976 23.2982C4.60211 23.8903 5.06628 24.6315 5.76762 25.4271C6.87986 26.6904 8.20299 27.5033 8.62179 27.75C8.93635 27.9353 9.35768 27.9892 9.66476 27.8737C9.97137 27.7584 10.128 27.5737 10.2286 27.4714C10.3438 27.3544 10.6222 27.1333 10.8718 26.9167C11.0357 26.7744 11.1043 26.7553 11.3835 26.6146C11.4233 26.5945 11.3504 26.5894 11.4642 26.6471L11.4655 26.6484H11.4668C11.5845 26.7073 11.708 26.758 11.9291 26.8516C12.1502 26.9451 12.4321 27.0623 12.7325 27.1875C13.3332 27.4379 14.0074 27.7179 14.3926 27.8802C14.6872 28.0043 14.6807 28.0622 14.6609 28.0195C14.6413 27.9775 14.6422 27.964 14.653 28.1823V28.1836V28.1849C14.6628 28.3965 14.6661 28.6488 14.6661 28.9049C14.6661 29.0029 14.6311 29.2449 14.3926 29.4661C13.9384 29.8877 13.2807 30.6667 11.6036 30.6667C10.0188 30.6667 8.25949 29.4018 7.98637 29.1953L7.98507 29.194C7.83202 29.0776 7.61567 28.9381 7.19991 28.6185C6.78338 28.2983 6.23279 27.8482 5.64132 27.2865C4.45842 26.163 3.11542 24.5901 2.32622 22.7396C1.93766 21.8271 1.70804 21.1224 1.53064 20.5573C1.27471 19.7422 1.30833 19.0001 1.40044 18.375C1.43105 18.1671 1.63721 17.6057 1.92908 17.1445C2.22095 16.6833 2.62156 16.3176 2.8158 16.2474C3.21258 16.1041 3.5832 16.0325 3.85096 16.0091C3.94749 16.0007 4.01105 16.003 4.06971 16.0052ZM9.66606 16.6667C9.11406 16.6667 8.66606 17.1147 8.66606 17.6667C8.66606 18.2187 9.11406 18.6667 9.66606 18.6667C10.2181 18.6667 10.6661 18.2187 10.6661 17.6667C10.6661 17.1147 10.2181 16.6667 9.66606 16.6667ZM16.9994 16.6667C16.4474 16.6667 15.9994 17.1147 15.9994 17.6667C15.9994 18.2187 16.4474 18.6667 16.9994 18.6667C17.5514 18.6667 17.9994 18.2187 17.9994 17.6667C17.9994 17.1147 17.5514 16.6667 16.9994 16.6667Z" fill="white"/>
</svg>
